<?xml version="1.0" encoding="UTF-8" standalone="no"?>
<!DOCTYPE svg PUBLIC "-//W3C//DTD SVG 1.1//EN" "http://www.w3.org/Graphics/SVG/1.1/DTD/svg11.dtd">
<svg width="400" height="400" viewBox="0 0 400 400" xmlns="http://www.w3.org/2000/svg" xmlns:xlink="http://www.w3.org/1999/xlink">
<path
d="M 140 100
L 260 100
L 290 340
L 110 340 Z"
style="fill:#202020; stroke:#000000; stroke-width:16; stroke-linecap:round; stroke-linejoin:round"
/>
<path
d="M 110 80
C 110 80 130 70 150 70
L 152 100
L 178 100
L 180 65
C 180 65 200 60 220 65
L 222 100
L 248 100
L 250 70
C 250 70 270 70 290 80
L 290 120
C 290 120 290 145 260 150
C 260 150 200 140 140 150
C 140 150 110 145 110 120
 Z"
style="fill:#202020; stroke:#000000; stroke-width:16; stroke-linecap:round; stroke-linejoin:round"
/>
<path
d="M 200 300
C 300 300 320 310 320 360
L 80 360
C 80 310 100 300 200 300 Z"
style="fill:#202020; stroke:#000000; stroke-width:16; stroke-linecap:round; stroke-linejoin:round"
/>
</svg>