<?xml version="1.0" encoding="UTF-8" standalone="no"?>
<!DOCTYPE svg PUBLIC "-//W3C//DTD SVG 1.1//EN" "http://www.w3.org/Graphics/SVG/1.1/DTD/svg11.dtd">
<svg width="400" height="400" viewBox="0 0 400 400" xmlns="http://www.w3.org/2000/svg" xmlns:xlink="http://www.w3.org/1999/xlink">
<path
d="M 200 40
C 230 40 230 75 220 80
C 195 120 185 140 185 200
L 215 200
C 215 140 225 120 245 100
C 320 175 290 260 250 300
L 150 300
C 110 260 80 160 180 80
C 170 75 170 40 200 40 Z"
style="fill:#202020; stroke:#000000; stroke-width:16; stroke-linecap:round; stroke-linejoin:round"
/>
<path
d="M 200 300
C 300 300 320 310 320 360
L 80 360
C 80 310 100 300 200 300 Z"
style="fill:#202020; stroke:#000000; stroke-width:16; stroke-linecap:round; stroke-linejoin:round"
/>
</svg>