<?xml version="1.0" encoding="UTF-8" standalone="no"?>
<!DOCTYPE svg PUBLIC "-//W3C//DTD SVG 1.1//EN" "http://www.w3.org/Graphics/SVG/1.1/DTD/svg11.dtd">
<svg width="400" height="400" viewBox="0 0 400 400" xmlns="http://www.w3.org/2000/svg" xmlns:xlink="http://www.w3.org/1999/xlink">
<path
d="M 160 40
L 190 75
C 240 80 360 140 280 300
L 120 300
C 130 240 190 250 200 190
C 180 180 170 210 130 210
C 130 210 100 260 60 200
C 60 200 80 160 120 110
C 120 110 120 90 150 80 Z"
style="fill:#ffffff; stroke:#000000; stroke-width:16; stroke-linecap:round; stroke-linejoin:round"
/>
<path
d="M 160 120
C 155 125 150 125 165 122 Z"
style="fill:#000000; stroke:#000000; stroke-width:16; stroke-linecap:round; stroke-linejoin:round"
/>
<path
d="M 200 300
C 300 300 320 310 320 360
L 80 360
C 80 310 100 300 200 300 Z"
style="fill:#ffffff; stroke:#000000; stroke-width:16; stroke-linecap:round; stroke-linejoin:round"
/>
</svg>